<?xml version="1.0" standalone="no"?><!DOCTYPE svg PUBLIC "-//W3C//DTD SVG 1.1//EN" "http://www.w3.org/Graphics/SVG/1.1/DTD/svg11.dtd"><svg class="icon" width="200px" height="200.00px" viewBox="0 0 1024 1024" version="1.1" xmlns="http://www.w3.org/2000/svg"><path fill="#acacac" d="M830.08591 120.003901c-54.043762 13.482032-112.861238 7.050566-162.690011-17.807539-96.009466-48.03185-214.809961-48.03185-310.819427 0-49.829796 24.858104-108.647272 31.262965-162.692057 17.807539l-4.437047-1.095958c-25.47618-6.404861-51.374985 13.876004-51.374985 40.083847v395.255322c0 293.753783 351.114074 397.064524 366.069664 401.334772l7.865116 2.247176 7.865116-2.247176c14.943311-4.270248 366.057385-107.580989 366.057385-401.334772V163.373578c-0.002047-28.371108-28.314826-50.279026-55.843754-43.369677z m-1.684359 434.243211c0 227.970676-266.732414 327.012192-316.394388 343.472039-49.702906-16.459847-316.408714-115.501363-316.408714-343.472039v-374.948875c62.807339 12.079082 129.489931 2.950186 186.651701-25.616373 80.166671-40.026542 179.3054-40.026542 259.472071 0 40.505448 20.22356 85.839869 30.953927 131.176336 30.953928 18.592413 0 37.18892-1.796922 55.501971-5.337555v374.948875zM512.00614 324.547052c-79.308118 0-143.828469 64.576632-143.828469 143.927729 0 79.366447 64.52035 143.914426 143.828469 143.914426 79.26821 0 143.815166-64.547979 143.815166-143.914426 0-79.351097-64.546956-143.927729-143.815166-143.927729z m0 230.317112c-47.595923 0-86.301379-38.748435-86.301379-86.38836 0-47.610249 38.705456-86.344358 86.301379-86.344357 47.583643 0 86.289099 38.734109 86.289099 86.344357 0 47.639925-38.705456 86.38836-86.289099 86.38836z" /></svg>